HIERARCHY
ROOT Hips
{
  OFFSET 36.9024 100.536 -340.035
  CHANNELS 6 Xposition Yposition Zposition Zrotation Xrotation Yrotation
  JOINT ToSpine
  {
    OFFSET -0.0105055 1.38907 -7.13956
    CHANNELS 3 Zrotation Xrotation Yrotation
    JOINT Spine
    {
      OFFSET 0.0105055 10 1
      CHANNELS 3 Zrotation Xrotation Yrotation
      JOINT Spine1
      {
        OFFSET 0 12 1.60637
        CHANNELS 3 Zrotation Xrotation Yrotation
        JOINT Neck
        {
          OFFSET 0 27 2.26658
          CHANNELS 3 Zrotation Xrotation Yrotation
          JOINT Head
          {
            OFFSET 0 9 2.12705
            CHANNELS 3 Zrotation Xrotation Yrotation
            End Site
            {
              OFFSET 0 11 2
            }
          }
        }
        JOINT LeftShoulder
        {
          OFFSET 8 19.6109 2.86452
          CHANNELS 3 Zrotation Xrotation Yrotation
          JOINT LeftArm
          {
            OFFSET 12 1 0.681055
            CHANNELS 3 Zrotation Xrotation Yrotation
            JOINT LeftForeArm
            {
              OFFSET 19 0 -1.52608
              CHANNELS 3 Zrotation Xrotation Yrotation
              JOINT LeftHand
              {
                OFFSET 23 0 0
                CHANNELS 3 Zrotation Xrotation Yrotation
                End Site
                {
                  OFFSET 10 0 0
                }
              }
            }
          }
        }
        JOINT RightShoulder
        {
          OFFSET -8 19.6109 2.86452
          CHANNELS 3 Zrotation Xrotation Yrotation
          JOINT RightArm
          {
            OFFSET -12 1 0.681055
            CHANNELS 3 Zrotation Xrotation Yrotation
            JOINT RightForeArm
            {
              OFFSET -19 0 -1.52608
              CHANNELS 3 Zrotation Xrotation Yrotation
              JOINT RightHand
              {
                OFFSET -23 0 0
                CHANNELS 3 Zrotation Xrotation Yrotation
                End Site
                {
                  OFFSET -10 0 0
                }
              }
            }
          }
        }
      }
    }
  }
  JOINT LeftUpLeg
  {
    OFFSET 9 -7.17245 0
    CHANNELS 3 Zrotation Xrotation Yrotation
    JOINT LeftLeg
    {
      OFFSET 0 -44.1113 0
      CHANNELS 3 Zrotation Xrotation Yrotation
      JOINT LeftFoot
      {
        OFFSET 0 -36.1829 0
        CHANNELS 3 Zrotation Xrotation Yrotation
        JOINT LeftToeBase
        {
          OFFSET 0 -4.84184 13
          CHANNELS 3 Zrotation Xrotation Yrotation
          End Site
          {
            OFFSET 0 1 6
          }
        }
      }
    }
  }
  JOINT RightUpLeg
  {
    OFFSET -9 -7.17245 0
    CHANNELS 3 Zrotation Xrotation Yrotation
    JOINT RightLeg
    {
      OFFSET 0 -44.0551 0
      CHANNELS 3 Zrotation Xrotation Yrotation
      JOINT RightFoot
      {
        OFFSET 0 -36.1469 0
        CHANNELS 3 Zrotation Xrotation Yrotation
        JOINT RightToeBase
        {
          OFFSET 0 -4.92256 13
          CHANNELS 3 Zrotation Xrotation Yrotation
          End Site
          {
            OFFSET 0 1 6
          }
        }
      }
    }
  }
}
MOTION
Frames:	7
Frame Time:	0.0333333
36.9047 100.539 -340.01 0.88878 -3.26268 0.86667 0 0 0 3.26037 2.21247 0.731505 -5.66482 2.0301 1.67681 7.33132 4.32874 -4.19164 -2.16984 2.58402 -1.17886 -30.3868 3.564 -6.25595 -41.666 26.8207 -15.0417 -5.9055 -12.9533 -2.53812 -9.89644 0.359785 -4.14586 25.3465 4.56718 10.9137 53.7503 15.0052 7.05945 3.6554 -2.25349 9.64156 3.92819 0.134275 3.87846 2.64189 6.46805 8.56327 -0.996432 4.04555 -6.2043 -0.966088 -7.11543 -0.0602736 -1.79109 -3.76335 9.72347 1.11207 5.47183 -6.99723 1.52615 5.36362 -3.67189 -17.3705 -3.21533 -0.491069 4.34356 -16.579 -5.40544 
36.7532 100.551 -339.851 0.976443 -3.46516 0.42534 0 0 0 3.75941 2.69467 0.680063 -6.11045 1.61949 1.73087 6.99742 5.01643 -3.91573 -2.16524 2.22081 -0.991574 -30.8592 3.51313 -5.99711 -41.7037 25.0415 -14.0563 -5.39984 -12.1736 -2.69296 -11.0514 0.400441 -4.16058 24.9179 4.71293 11.534 54.1117 16.6797 6.8359 4.03699 -2.49577 9.9079 1.49697 0.0468755 3.59228 2.47946 6.80953 8.36144 -0.712641 4.10332 -5.2963 -1.26826 -7.49098 -0.0827163 -1.57195 -3.40766 8.42354 0.874442 5.66593 -7.40743 1.755 5.69258 -2.89083 -16.7699 -3.72179 -0.548288 4.22367 -16.0117 -4.98046 
36.1457 100.539 -339.522 1.20131 -3.68378 0.242973 0 0 0 3.21864 2.90647 0.746529 -5.62564 1.56313 1.7546 6.60295 5.53287 -3.52096 -2.10969 2.37584 -0.718986 -31.7425 3.48434 -5.69898 -40.9188 23.0598 -12.948 -5.00888 -12.1576 -2.92356 -12.8064 0.412643 -3.66578 26.3882 5.64511 13.7412 52.8562 16.1951 5.54046 3.25164 0.183714 9.87744 0.443681 0.00937556 3.18594 2.87346 6.91257 8.75958 -0.936194 4.91075 -4.96517 -1.40992 -8.21908 -0.103023 -0.687969 -2.85312 4.05942 1.0296 6.17182 -7.52489 1.65487 5.63021 -2.63061 -16.3886 -4.24671 -0.61193 4.05326 -15.2647 -4.82087 
35.6754 100.474 -339.228 1.37862 -3.76048 0.437591 0 0 0 3.65995 2.82424 0.713977 -6.36441 1.99872 1.92743 6.46808 5.25233 -3.46804 -2.09032 2.55511 -0.727347 -31.1618 3.38315 -5.57233 -41.5409 21.275 -12.3247 -4.40237 -10.8726 -3.15432 -12.9874 0.441585 -3.87772 26.2745 5.64701 13.7916 52.9358 15.7706 5.59178 2.67655 2.15159 10.2775 1.73818 0.0351163 2.25413 3.22666 6.3057 8.81886 -1.01514 6.95682 -5.21557 -1.48182 -9.55858 -0.120684 -0.721023 -2.37524 3.96367 1.12673 6.51567 -7.76457 1.81532 5.54498 -2.81497 -16.9733 -4.25835 -0.635417 3.99949 -15.0705 -5.59657 
35.3218 100.381 -338.952 1.30903 -4.03268 0.534895 0 0 0 4.541 3.26495 0.810541 -6.91165 1.94229 2.21066 5.76761 5.64206 -3.45332 -1.81641 2.20756 -1.0081 -31.4168 3.4562 -5.70532 -41.2707 20.4471 -11.4716 -4.23186 -11.1875 -4.04411 -12.4846 0.314646 -2.87726 25.8959 5.50731 13.56 53.1411 16.3131 5.81971 3.04156 1.54646 9.78795 1.12522 0.0226014 2.35063 3.76614 5.44846 8.83142 -1.1412 9.94208 -4.88604 0.00567637 -10.9007 -0.00243384 -0.389652 -2.33556 2.39876 1.38575 6.87155 -7.96214 1.86942 5.92149 -2.84428 -16.6941 -4.93394 -0.724468 3.8979 -14.6241 -5.80213 
34.844 100.126 -338.672 0.953245 -4.22137 0.876647 0 0 0 5.36294 3.71678 0.594327 -7.12014 1.75364 2.14473 5.50136 5.72472 -3.13002 -1.87858 2.35751 -0.757813 -31.5964 3.41801 -5.5606 -40.8184 20.407 -10.2223 -4.35521 -14.2423 -5.62715 -11.1933 0.295945 -3.0221 25.7511 5.61205 13.9544 53.2617 16.1577 5.57242 3.02701 1.50878 9.8103 1.26557 0.0175926 2.22837 4.91692 4.00021 9.25819 -1.21005 13.7515 -6.50204 -0.427644 -12.3958 -0.0456279 -0.76115 -4.85991 5.44369 2.00805 6.86364 -8.13258 2.08562 6.88408 -3.19476 -16.9465 -5.59304 -0.834166 3.98702 -14.9836 -4.9505 
34.4581 99.961 -338.437 0.673289 -4.49757 1.05187 0 0 0 6.19418 4.35207 0.683991 -7.55064 1.77839 2.38959 5.65095 5.51705 -3.1226 -2.01695 2.10211 -0.678979 -31.3534 3.41337 -5.60683 -40.8529 19.3816 -9.87105 -4.09822 -13.8298 -5.5591 -10.6452 0.324055 -3.47688 25.9975 5.60939 13.817 52.6896 16.2651 5.54148 3.05315 1.64794 9.72006 1.31577 0.0166149 2.36401 5.8074 2.19758 9.75709 -0.88749 18.4202 -7.00102 0.359654 -13.1715 0.0419987 -0.485854 -5.23271 4.22159 2.60195 7.10916 -7.99677 2.13266 7.3609 -3.60902 -17.4626 -6.049 -0.929669 3.85871 -14.4308 -5.0677 
